HIERARCHY
ROOT Hips
{
	OFFSET 0.00000 0.00000 0.00000
	CHANNELS 6 Xposition Yposition Zposition Zrotation Yrotation Xrotation 
	JOINT LHipJoint
	{
		OFFSET 0 0 0
		CHANNELS 3 Zrotation Yrotation Xrotation
		JOINT LeftHip
		{
			OFFSET 1.53794 -1.55850 0.93568
			CHANNELS 3 Zrotation Yrotation Xrotation
			JOINT LeftKnee
			{
				OFFSET 2.28545 -6.27922 0.00000
				CHANNELS 3 Zrotation Yrotation Xrotation
				JOINT LeftAnkle
				{
					OFFSET 2.37329 -6.52057 0.00000
					CHANNELS 3 Zrotation Yrotation Xrotation
					JOINT LeftToe
					{
						OFFSET 0.14846 -0.40788 2.09160
						CHANNELS 3 Zrotation Yrotation Xrotation
						End Site
						{
							OFFSET 0.00000 -0.00000 1.07536
						}
					}
				}
			}
		}
	}
	JOINT RHipJoint
	{
		OFFSET 0 0 0
		CHANNELS 3 Zrotation Yrotation Xrotation
		JOINT RightHip
		{
			OFFSET -1.78290 -1.55850 0.93568
			CHANNELS 3 Zrotation Yrotation Xrotation
			JOINT RightKnee
			{
				OFFSET -2.24144 -6.15831 0.00000
				CHANNELS 3 Zrotation Yrotation Xrotation
				JOINT RightAnkle
				{
					OFFSET -2.35091 -6.45907 0.00000
					CHANNELS 3 Zrotation Yrotation Xrotation
					JOINT RightToe
					{
						OFFSET -0.14428 -0.39641 2.07944
						CHANNELS 3 Zrotation Yrotation Xrotation
						End Site
						{
							OFFSET -0.00000 -0.00000 1.06864
						}
					}
				}
			}
		}
	}
	JOINT lowerback
	{
		OFFSET 0 0 0
		CHANNELS 3 Zrotation Yrotation Xrotation
		JOINT Chest
		{
			OFFSET -0.08841 2.11430 -0.15818
			CHANNELS 3 Zrotation Yrotation Xrotation
			JOINT Chest2
			{
				OFFSET -0.00033 2.12605 -0.08097
				CHANNELS 3 Zrotation Yrotation Xrotation
				JOINT lowerneck
				{
					OFFSET 0 0 0
					CHANNELS 3 Zrotation Yrotation Xrotation
					JOINT Neck
					{
						OFFSET 0.04431 1.59447 0.43193
						CHANNELS 3 Zrotation Yrotation Xrotation
						JOINT Head
						{
							OFFSET 0.00455 1.62017 -0.58852
							CHANNELS 3 Zrotation Yrotation Xrotation
							End Site
							{
								OFFSET -0.00920 1.72955 -0.25850
							}
						}
					}
				}
				JOINT LeftCollar
				{
					OFFSET 0 0 0
					CHANNELS 3 Zrotation Yrotation Xrotation
					JOINT LeftShoulder
					{
						OFFSET 2.86490 1.49927 -0.33774
CHANNELS 3 Zrotation Xrotation Yrotation
						JOINT LeftElbow
						{
OFFSET 0 -4.874080 0.000000
CHANNELS 3 Zrotation Xrotation Yrotation
							JOINT LeftWrist
							{
OFFSET 0 -2.767290 0.000000
CHANNELS 3 Zrotation Xrotation Yrotation
								JOINT lhand
								{
									OFFSET 0 0 0
CHANNELS 3 Zrotation Xrotation Yrotation
									JOINT LFingers
									{
OFFSET 0 -0.989220 0.000000
CHANNELS 3 Zrotation Xrotation Yrotation
										End Site
										{
OFFSET 0 -0.797530 0.000000
										}
									}
								}
								JOINT LThumb
								{
OFFSET 0 0.000000 0.000000
CHANNELS 3 Zrotation Xrotation Yrotation
									End Site
									{
OFFSET 0 -0.809720 0.809720
									}
								}
							}
						}
					}
				}
				JOINT RightCollar
				{
					OFFSET 0 0 0
					CHANNELS 3 Zrotation Yrotation Xrotation
					JOINT RightShoulder
					{
						OFFSET -2.94414 1.45463 -0.25291
CHANNELS 3 Zrotation Xrotation Yrotation
						JOINT RightElbow
						{
OFFSET 0 -4.714040 0.000000
CHANNELS 3 Zrotation Xrotation Yrotation
							JOINT RightWrist
							{
OFFSET 0 -2.834680 0.000000
CHANNELS 3 Zrotation Xrotation Yrotation
								JOINT rhand
								{
									OFFSET 0 0 0
CHANNELS 3 Zrotation Xrotation Yrotation
									JOINT RFingers
									{
OFFSET 0 -0.868200 0.000000
CHANNELS 3 Zrotation Xrotation Yrotation
										End Site
										{
OFFSET 0 -0.699960 0.000000
										}
									}
								}
								JOINT RThumb
								{
OFFSET 0 0.000000 0.000000
CHANNELS 3 Zrotation Xrotation Yrotation
									End Site
									{
OFFSET 0 -0.710650 0.710650
									}
								}
							}
						}
					}
				}
			}
		}
	}
}
MOTION
Frames: 6
Frame Time: 0.008333333333333333
1.322300 15.973600 34.555400 -176.485000 -3.118000 -174.785000 0.000000 0.000000 0.000000 -14.473000 -16.190700 -33.707800 3.031200 10.745400 31.425900 1.157900 12.833300 19.946800 0.221700 -3.030900 -8.364700 0.000000 0.000000 0.000000 29.299400 -2.353300 -5.361100 -6.949900 -15.289600 48.684600 0.579400 -20.861800 9.551000 -1.287700 7.190400 -20.280800 -0.589800 3.306400 -2.170100 -0.041100 4.410100 2.148700 0.508400 2.171400 3.382100 -1.999600 -1.490000 -31.311000 2.468600 -6.028600 41.915100 -0.421100 -3.048900 24.071000 -0.000000 -0.000000 0.000000 21.929400 34.378000 -48.522000 97.978500 -59.758100 66.904000 15.047100 21.638800 -1.015000 0.000000 0.000000 0.000000 -7.125000 0.000000 0.000000 -9.151700 30.954700 -3.176900 -0.000000 -0.000000 0.000000 -8.467600 17.185300 47.043900 -86.449000 -59.952300 -56.925200 -11.588100 11.599600 0.053700 0.000000 0.000000 0.000000 7.125000 0.000000 -0.000000 11.750200 29.925200 4.405300
1.313782 15.882632 34.306569 -176.545818 -3.127777 -175.438790 0.000000 0.000000 0.000000 -15.363607 -15.266928 -32.763915 3.309925 11.180289 32.890668 0.466472 12.441811 13.988644 0.100332 -2.041495 -5.620376 0.000000 0.000000 0.000000 28.863329 -2.704943 -6.393372 -8.030983 -16.141004 52.672560 0.843299 -21.708254 7.752892 -1.401058 7.487591 -21.168127 -0.722065 3.046531 -1.662698 0.121396 4.051065 2.305964 0.705389 1.984488 3.240969 -1.842660 -1.237140 -31.313221 2.239892 -5.635267 42.018829 -0.470942 -2.930210 24.120065 0.000000 0.000000 0.000000 21.177646 34.295510 -48.058807 97.152778 -59.805801 66.190439 15.221391 21.646712 -0.916806 0.000000 0.000000 0.000000 -7.125000 0.000000 0.000000 -9.004299 30.857312 -3.145895 0.000000 0.000000 0.000000 -8.740940 17.331404 47.001526 -85.870684 -59.935432 -56.424646 -10.947797 10.501978 0.545901 0.000000 0.000000 0.000000 7.125000 0.000000 0.000000 12.308776 30.405015 4.479046
1.307320 15.785977 34.061098 -176.653688 -3.126364 -176.090082 0.000000 0.000000 0.000000 -16.238493 -14.330902 -31.654156 3.621218 11.638176 34.464205 0.199556 12.599221 11.272477 0.063700 -1.627548 -4.477451 0.000000 0.000000 0.000000 28.373929 -2.968027 -7.427099 -9.116265 -16.880348 56.489070 1.027193 -22.258317 6.417231 -1.531052 7.811943 -22.144333 -0.834460 2.850710 -1.088476 0.128455 3.778313 2.442783 0.735927 1.842807 3.054908 -1.627777 -1.009879 -31.264662 2.153268 -5.450430 42.196976 -0.518549 -2.862633 24.243654 0.000000 0.000000 0.000000 20.971138 34.084344 -48.059645 96.500271 -59.839582 65.626326 15.709672 21.671246 -1.016853 0.000000 0.000000 0.000000 -7.125000 0.000000 0.000000 -8.629160 30.968437 -2.988760 0.000000 0.000000 0.000000 -8.559931 17.669491 46.381721 -84.781424 -59.896303 -55.482167 -10.636558 11.272502 0.298243 0.000000 0.000000 0.000000 7.125000 0.000000 0.000000 12.518686 30.153037 4.636145
1.302341 15.725711 33.822790 -176.951519 -3.265579 -176.675339 0.000000 0.000000 0.000000 -16.927805 -14.546798 -30.649979 3.915853 12.047026 35.899235 -0.046922 13.968137 9.230538 0.038756 -1.266419 -3.482174 0.000000 0.000000 0.000000 27.654246 -3.083362 -8.705257 -10.184996 -17.510330 60.102014 1.089377 -22.171275 5.548470 -1.640881 8.073814 -22.938696 -1.042672 2.565898 -0.436346 0.032629 3.386345 2.583576 0.711375 1.639755 2.833037 -1.363676 -0.729784 -31.072938 2.280421 -5.269010 42.204129 -0.444268 -2.754755 24.167237 0.000000 0.000000 0.000000 20.666440 33.549776 -47.932361 95.482591 -59.885876 64.746276 15.927593 21.595585 -0.972631 0.000000 0.000000 0.000000 -7.125000 0.000000 0.000000 -8.452719 30.926850 -2.935051 0.000000 0.000000 0.000000 -8.367861 17.707466 46.187648 -82.788487 -59.802121 -53.758840 -11.182317 11.476836 0.830016 0.000000 0.000000 0.000000 7.125000 0.000000 0.000000 12.162768 30.692709 4.337964
1.297680 15.640991 33.588368 -177.286818 -3.334425 -177.270988 0.000000 0.000000 0.000000 -17.755110 -14.372959 -29.606390 4.212043 12.436871 37.296382 -0.313056 15.076833 6.674350 0.014826 -0.778441 -2.139354 0.000000 0.000000 0.000000 26.880020 -3.155999 -9.893436 -11.292925 -18.072747 63.726092 1.172237 -22.184303 4.516059 -1.752674 8.330469 -23.722534 -1.334119 2.340657 0.212348 -0.073945 3.069847 2.724523 0.730465 1.471551 2.609669 -1.155100 -0.512285 -30.888385 2.377994 -5.156973 42.248293 -0.399701 -2.686523 24.132240 0.000000 0.000000 0.000000 20.451295 32.985664 -47.941789 94.414207 -59.925866 63.821886 16.235907 21.583444 -1.058782 0.000000 0.000000 0.000000 -7.125000 0.000000 0.000000 -8.217362 31.021012 -2.833131 0.000000 0.000000 0.000000 -8.089918 17.875894 45.730428 -81.218278 -59.705803 -52.402318 -11.410592 11.722012 1.188990 0.000000 0.000000 0.000000 7.125000 0.000000 0.000000 12.031081 31.055563 4.182134
1.294817 15.557818 33.361294 -177.784765 -3.387431 -177.835195 0.000000 0.000000 0.000000 -18.701443 -14.269854 -28.507891 4.475472 12.767018 38.503441 -0.548740 16.266488 4.499460 0.003451 -0.360048 -0.989398 0.000000 0.000000 0.000000 25.913992 -3.087527 -11.194321 -12.412481 -18.556466 67.287159 1.206143 -21.949315 3.645151 -1.829136 8.500742 -24.245697 -1.783322 2.146199 0.847439 -0.255699 2.787921 2.902372 0.767618 1.315150 2.429746 -1.056717 -0.358016 -30.652722 2.613707 -5.152088 42.256767 -0.286028 -2.656735 24.065525 0.000000 0.000000 0.000000 20.314743 32.166113 -48.064880 93.139647 -59.962053 62.718641 16.538594 21.614899 -1.256232 0.000000 0.000000 0.000000 -7.125000 0.000000 0.000000 -7.996318 31.230291 -2.715043 0.000000 0.000000 0.000000 -7.687897 17.979452 45.123419 -79.460709 -59.574907 -50.885779 -11.770449 12.071501 1.600248 0.000000 0.000000 0.000000 7.125000 0.000000 0.000000 11.802654 31.475039 3.978246
